<?xml version="1.0" encoding="utf-8"?>
<!DOCTYPE svg PUBLIC "-//W3C//DTD SVG 1.1//EN" "http://www.w3.org/Graphics/SVG/1.1/DTD/svg11.dtd">
<svg version="1.1" id="Layer_1" 
     xmlns="http://www.w3.org/2000/svg" 
     xmlns:xlink="http://www.w3.org/1999/xlink" 
     x="0px" y="0px" width="100%" height="100%" 
     viewBox="0 0 100% 100%" enable-background="new 0 0 200 200" xml:space="preserve">
<g>
  <g id="black1" transform="translate(2,2)">
     <path fill="#000000" d="M143.004,79.903c0.46-10.609-2.639-19.137-6.817-25.965c-4.181-6.828-11.763-13.56-20.11-12.801
        c-4.989,0.453-7.141,2.331-8.275,5.007c-1.136,2.677-1.401,8.715-1.401,11.277c0,4.609,0,63.854,0,63.854
        c12.104-1.611,23.293-8.627,30.312-19.711C140.631,95.377,142.69,87.148,143.004,79.903z"/>
     <path fill="#000000" d="M100.167,1C46.012,1,2.111,44.228,2.111,97.551c0,49.525,37.745,90.201,86.523,95.763
        c2.419,0.119,3.815-0.115,4.956-1.088c0.925-0.789,1.342-2.102,1.342-3.229l0.052-57.543c-26.404-2.746-47.524-24.512-47.2-51.238
        c0.31-25.528,17.895-45.985,41.165-50.799c0.616-0.127,1.034-0.246,1.36,0.082c0.359,0.359,0.151,1.23,0.151,1.23l-1.758,8.549
        c0,0-0.117,0.531-0.277,0.692c-0.16,0.161-0.366,0.242-0.604,0.316c-10.111,3.162-19.255,9.985-23.668,18.269
        c-3.679,6.908-6.071,12.063-6.071,21.463c0,20.235,15.912,38.774,36.9,41.293v-63.89c0-6.669,0.346-14.467,4.276-19.797
        c3.063-4.152,8.4-6.709,16.822-6.709c12.109,0,26.609,8.887,33.937,28.095c2.214,5.804,3.524,13.163,3.504,21.1
        c-0.065,26.646-20.839,48.455-47.125,51.312l-0.051,57.578c0,1.521,0.479,2.65,1.363,3.332c1.063,0.82,1.955,1.16,4.929,0.904
        c1.102-0.094,3.2-0.359,4.102-0.51c46.258-7.754,81.476-47.416,81.476-95.176C198.219,44.227,154.32,1,100.167,1z"/>
  </g>

  <g id="main1">
     <path fill="#f04040" d="M143.004,79.903c0.46-10.609-2.639-19.137-6.817-25.965c-4.181-6.828-11.763-13.56-20.11-12.801
        c-4.989,0.453-7.141,2.331-8.275,5.007c-1.136,2.677-1.401,8.715-1.401,11.277c0,4.609,0,63.854,0,63.854
        c12.104-1.611,23.293-8.627,30.312-19.711C140.631,95.377,142.69,87.148,143.004,79.903z"/>
     <path fill="#f04040" d="M100.167,1C46.012,1,2.111,44.228,2.111,97.551c0,49.525,37.745,90.201,86.523,95.763
        c2.419,0.119,3.815-0.115,4.956-1.088c0.925-0.789,1.342-2.102,1.342-3.229l0.052-57.543c-26.404-2.746-47.524-24.512-47.2-51.238
        c0.31-25.528,17.895-45.985,41.165-50.799c0.616-0.127,1.034-0.246,1.36,0.082c0.359,0.359,0.151,1.23,0.151,1.23l-1.758,8.549
        c0,0-0.117,0.531-0.277,0.692c-0.16,0.161-0.366,0.242-0.604,0.316c-10.111,3.162-19.255,9.985-23.668,18.269
        c-3.679,6.908-6.071,12.063-6.071,21.463c0,20.235,15.912,38.774,36.9,41.293v-63.89c0-6.669,0.346-14.467,4.276-19.797
        c3.063-4.152,8.4-6.709,16.822-6.709c12.109,0,26.609,8.887,33.937,28.095c2.214,5.804,3.524,13.163,3.504,21.1
        c-0.065,26.646-20.839,48.455-47.125,51.312l-0.051,57.578c0,1.521,0.479,2.65,1.363,3.332c1.063,0.82,1.955,1.16,4.929,0.904
        c1.102-0.094,3.2-0.359,4.102-0.51c46.258-7.754,81.476-47.416,81.476-95.176C198.219,44.227,154.32,1,100.167,1z"/>
  </g>

  <g id="main2" transform="translate(0,200) scale(0.5,0.5)">
    <use xlink:href="#black1" x="5" y="5"/>
    <use xlink:href="#main1"/>
  </g>

  <g id="main3" transform="translate(100,200) scale(0.5,0.5)">
    <use xlink:href="#black1" x="5" y="5"/>
    <use xlink:href="#main1"/>
  </g>

  <g id="main4" transform="translate(200,200) scale(0.5,0.5)">
    <use xlink:href="#black1" x="5" y="5"/>
    <use xlink:href="#main1"/>
  </g>

  <g id="main5" transform="translate(300,0) scale(1.5,1.5)">
    <use xlink:href="#black1" x="3" y="3"/>
    <use xlink:href="#main1"/>
  </g>
</g>
</svg>

